<svg id="Layer_1" data-name="Layer 1" xmlns="http://www.w3.org/2000/svg" xmlns:xlink="http://www.w3.org/1999/xlink" viewBox="0 0 150.16 61"><defs><style>.cls-1{fill:url(#radial-gradient);}.cls-2{fill:url(#linear-gradient);}.cls-3{fill:#ed1c24;}.cls-4{fill:#231f20;}</style><radialGradient id="radial-gradient" cx="416" cy="408.68" r="31.69" gradientUnits="userSpaceOnUse"><stop offset="0" stop-color="#ed1c24"/><stop offset="1" stop-color="#8c003f"/></radialGradient><linearGradient id="linear-gradient" x1="4.69" y1="49.27" x2="28.16" y2="49.27" gradientUnits="userSpaceOnUse"><stop offset="0" stop-color="#6d6e71"/><stop offset="0.09" stop-color="#727376"/><stop offset="0.2" stop-color="#818285"/><stop offset="0.31" stop-color="#9a9b9d"/><stop offset="0.44" stop-color="#bcbebf"/><stop offset="0.51" stop-color="#d1d3d4"/><stop offset="0.54" stop-color="#c0c2c4"/><stop offset="0.62" stop-color="#a2a4a6"/><stop offset="0.7" stop-color="#8b8c8f"/><stop offset="0.79" stop-color="#7a7b7e"/><stop offset="0.88" stop-color="#707174"/><stop offset="1" stop-color="#6d6e71"/></linearGradient></defs><title>logo</title><path class="cls-1" d="M412.12,393.06v4.69h-4.69v-4.69h4.69Zm9.39,23.46v-4.69h-4.7v4.69h-4.69v4.69h-4.69v-4.69h4.69v-4.69h4.69V397.75h-4.69v4.69h-4.69v4.7h-4.69v4.69H398v4.69h-4.69v9.38H398v4.7h23.47v-4.7h4.69v-9.38h-4.69Z" transform="translate(-393.35 -393.06)"/><polygon class="cls-2" points="4.69 37.54 4.69 42.23 9.39 42.23 9.39 46.92 14.08 46.92 14.08 61 18.77 61 18.77 46.92 23.46 46.92 23.46 42.23 28.16 42.23 28.16 37.54 4.69 37.54"/><rect class="cls-3" x="4.68" y="36.91" width="23.48" height="0.66"/><path class="cls-4" d="M458.56,435.58c-2.09,0-3.4-.56-5.46-2a12.33,12.33,0,0,1-6.71,1.9c-7.3,0-13.08-5.56-13.08-12.53a12.53,12.53,0,0,1,12.89-12.5A12.39,12.39,0,0,1,459,423.11a10.55,10.55,0,0,1-2.91,7.75,4.28,4.28,0,0,0,2.23.72,8.88,8.88,0,0,0,1.11-.1v4.06C459.15,435.58,458.69,435.58,458.56,435.58Zm-12.43-20.78a8.11,8.11,0,0,0-8.34,8.22,8.64,8.64,0,0,0,.07,1.15,14.2,14.2,0,0,1,3.73-.43,16.07,16.07,0,0,1,10.93,4.68,7.11,7.11,0,0,0,2-5.23A8.15,8.15,0,0,0,446.13,414.79Zm-4.58,12.6a10.93,10.93,0,0,0-2.32.26,8.36,8.36,0,0,0,7.16,3.53,6.15,6.15,0,0,0,2.91-.62C446.53,428.35,444.2,427.4,441.55,427.4Z" transform="translate(-393.35 -393.06)"/><path class="cls-4" d="M462,435.09V410.9h19.41v4.29H466.51v5.7h14.57v4.29H466.51v5.63h14.93v4.29H462Z" transform="translate(-393.35 -393.06)"/><path class="cls-4" d="M499.6,433.74c-2,1-4.15,1.34-7.82,1.34H484V410.9h7.67c3.8,0,6.67.59,8.57,1.73,3.37,2,5.27,5.83,5.27,10.41C505.52,427.92,503.33,431.91,499.6,433.74Zm-2.29-17.57c-1.41-.72-2.94-1-5.79-1h-3V430.8h3.13a12.09,12.09,0,0,0,5.89-1.08A8.18,8.18,0,0,0,497.31,416.17Z" transform="translate(-393.35 -393.06)"/><path class="cls-4" d="M523,431.45v3.63h-4.35v-3.63H508.18v-3.53l11.12-17H523v16.66h2.55v3.89H523Zm-4.35-13.22-6,9.32h6v-9.32Z" transform="translate(-393.35 -393.06)"/><path class="cls-4" d="M538.82,426.52L533.88,431h9.52v4.09H527.77v-3.83l8.6-8.14c2-1.87,2.78-3.27,2.78-4.84a3.58,3.58,0,0,0-3.5-3.8c-2.26,0-3.76,1.9-3.76,4.79h-4.28c0-5.57,3.37-8.78,8-8.78a7.72,7.72,0,0,1,7.88,7.86C543.5,421.31,542.49,423.21,538.82,426.52Z" transform="translate(-393.35 -393.06)"/></svg>